<svg xmlns="http://www.w3.org/2000/svg" width="64" height="64" viewBox="0 0 640 640" shape-rendering="geometricPrecision" text-rendering="geometricPrecision" image-rendering="optimizeQuality" fill-rule="evenodd" clip-rule="evenodd"><path style="fill:#fff;" d="M23.055 388.257C8.115 373.907.39 354.82 0 335.591c-.378-19.217 6.567-38.61 20.906-53.552 14.339-14.93 33.425-22.665 52.642-23.043 19.229-.402 38.61 6.531 53.564 20.894L256.22 404.12 513.255 77.612l9.213 7.015-9.225-7.05a11.617 11.617 0 0 1 2.504-2.434c15.284-13.24 34.477-19.229 53.245-18.2v-.025l.91.083c18.873 1.252 37.31 9.638 50.917 24.815 13.855 15.45 20.115 35.068 19.075 54.237h.024l-.083.922c-1.228 18.52-9.33 36.638-24.012 50.162L307.351 562.626l.024.023a11.41 11.41 0 0 1-1.937 1.914c-14.446 12.685-32.682 18.91-50.824 18.59-18.284-.318-36.532-7.263-50.74-20.905L23.055 388.258z" fill-rule="nonzero"/></svg>